<svg width="20" height="20" viewBox="0 0 20 20" fill="none" xmlns="http://www.w3.org/2000/svg">
<path d="M5.003 11.963C3.70596 11.0597 2.85714 9.55756 2.85714 7.85714C2.85714 5.09572 5.09572 2.85714 7.85714 2.85714C10.6186 2.85714 12.8571 5.09572 12.8571 7.85714C12.8571 9.55756 12.0083 11.0597 10.7113 11.963C13.6396 13.1052 15.7143 15.9532 15.7143 19.2857C15.7143 19.5265 15.7035 19.7647 15.6823 20H14.2465C14.2724 19.7655 14.2857 19.5271 14.2857 19.2857C14.2857 15.7353 11.4075 12.8571 7.85714 12.8571C4.30674 12.8571 1.42857 15.7353 1.42857 19.2857C1.42857 19.5271 1.44188 19.7655 1.46781 20H0.0320307C0.0108304 19.7647 0 19.5265 0 19.2857C0 15.9532 2.07473 13.1052 5.003 11.963ZM7.85714 11.4286C9.82959 11.4286 11.4286 9.82959 11.4286 7.85714C11.4286 5.8847 9.82959 4.28571 7.85714 4.28571C5.8847 4.28571 4.28571 5.8847 4.28571 7.85714C4.28571 9.82959 5.8847 11.4286 7.85714 11.4286ZM13.8355 10.2252C14.126 9.49242 14.2857 8.69355 14.2857 7.8574C15.1532 7.20583 15.7143 6.16844 15.7143 5C15.7143 3.02755 14.1153 1.42857 12.1429 1.42857C11.4815 1.42857 10.862 1.60836 10.3308 1.92174C9.78782 1.69518 9.2071 1.54095 8.60069 1.47111C9.50603 0.562384 10.7588 0 12.1429 0C14.9043 0 17.1429 2.23858 17.1429 5C17.1429 6.70042 16.294 8.20258 14.997 9.10589C17.9253 10.2481 20 13.096 20 16.4286C20 16.6693 19.9892 16.9076 19.968 17.1429H18.5322C18.5581 16.9083 18.5714 16.67 18.5714 16.4286C18.5714 13.464 16.5647 10.9681 13.8355 10.2252Z" fill="#EDAB45"/>
</svg>
