<svg width="20" height="20" viewBox="0 0 20 20" fill="none" xmlns="http://www.w3.org/2000/svg">
<path d="M5.99777 15.9941C4.89818 15.9941 4.00851 16.8937 4.00851 17.9933C4.00851 19.0929 4.89818 19.9926 5.99777 19.9926C7.09736 19.9926 7.99703 19.0929 7.99703 17.9933C7.99703 16.8937 7.09736 15.9941 5.99777 15.9941ZM15.9941 15.9941C14.8945 15.9941 14.0048 16.8937 14.0048 17.9933C14.0048 19.0929 14.8945 19.9926 15.9941 19.9926C17.0937 19.9926 17.9933 19.0929 17.9933 17.9933C17.9933 16.8937 17.0937 15.9941 15.9941 15.9941ZM14.5446 10.9959C15.2943 10.9959 15.9541 10.5861 16.2939 9.9663L19.8726 3.47871C20.2425 2.81895 19.7627 1.99926 19.0029 1.99926H4.20844L3.26879 0H0V1.99926H1.99926L5.59792 9.58644L4.24842 12.0255C3.51869 13.365 4.47834 14.9944 5.99777 14.9944H17.9933V12.9952H5.99777L7.09736 10.9959H14.5446ZM5.15808 3.99851H17.3036L14.5446 8.99666H7.5272L5.15808 3.99851Z" fill="#EDAB45"/>
</svg>
