<svg width="113" height="48" viewBox="0 0 113 48" fill="none" xmlns="http://www.w3.org/2000/svg">
<path d="M1.18114 27.1752C1.17947 27.1752 1.1778 27.1744 1.1753 27.1744L1.18198 27.1752H1.18114Z" fill="white"/>
<path d="M2.44498 14.8231C2.44498 14.8231 2.4343 14.8534 2.41649 14.913C2.39779 14.9727 2.37286 15.0626 2.34348 15.1792C2.32834 15.2371 2.31231 15.3021 2.29718 15.3742C2.28115 15.4455 2.26423 15.5238 2.24821 15.6084C2.21615 15.7776 2.18499 15.9726 2.16006 16.1889C2.11198 16.6225 2.08794 17.1479 2.15561 17.7248C2.2215 18.3009 2.3782 18.926 2.67826 19.5332C2.97654 20.1413 3.41193 20.7299 3.97911 21.2614C4.54272 21.7948 5.23454 22.272 6.0065 22.6932C6.05548 22.7199 6.10356 22.7457 6.15164 22.7724C6.2015 22.7973 6.25047 22.8232 6.30033 22.8481C6.35019 22.8739 6.39916 22.8997 6.44902 22.9255C6.49978 22.9496 6.54964 22.9745 6.60039 22.9995C6.65114 23.0235 6.70189 23.0484 6.75264 23.0734C6.80429 23.0965 6.85593 23.1205 6.90846 23.1446C7.01531 23.1936 7.12215 23.2425 7.22989 23.2915C7.68042 23.4936 8.13629 23.7046 8.59662 23.9201C9.5146 24.3537 10.4468 24.8176 11.3684 25.3314C11.599 25.4605 11.8287 25.5931 12.0575 25.7276C12.1715 25.797 12.2846 25.8665 12.3985 25.935C12.5116 26.0063 12.6247 26.0757 12.7378 26.1487C12.85 26.2208 12.9622 26.293 13.0735 26.3687L13.24 26.4808L13.4056 26.5966C13.516 26.6723 13.6255 26.7524 13.7341 26.8308C13.8427 26.9109 13.9496 26.9928 14.0573 27.0747C14.2701 27.2412 14.482 27.4086 14.6859 27.5885C14.8907 27.7657 15.0911 27.9509 15.2834 28.1414C15.3795 28.2385 15.4757 28.3337 15.5674 28.4343C15.6146 28.4842 15.66 28.5341 15.7063 28.583C15.7517 28.6347 15.7962 28.6854 15.8417 28.7362L15.9084 28.8136L15.9734 28.892C16.0162 28.9445 16.0589 28.9971 16.1016 29.0496C16.1435 29.1039 16.1844 29.1573 16.2263 29.2107L16.2877 29.2918L16.3474 29.3746C16.3866 29.4289 16.4257 29.4841 16.4649 29.5393C16.5023 29.5954 16.5397 29.6524 16.5771 29.7085L16.6332 29.7922C16.651 29.8207 16.6679 29.85 16.6857 29.8785C16.7213 29.9364 16.7561 29.9934 16.7908 30.0504C16.9252 30.2828 17.0499 30.5187 17.1585 30.76C17.3784 31.2399 17.5414 31.7341 17.6465 32.2211C17.6598 32.2817 17.6741 32.3422 17.6856 32.4028C17.6963 32.4633 17.707 32.5239 17.7177 32.5844C17.723 32.6147 17.7284 32.6449 17.7328 32.6743C17.7382 32.7046 17.7417 32.7349 17.7453 32.7651C17.7533 32.8248 17.7613 32.8845 17.7684 32.9441C17.7773 33.0029 17.7818 33.0625 17.7871 33.1213C17.7925 33.1801 17.7978 33.2388 17.8032 33.2976C17.8103 33.4142 17.8138 33.53 17.8192 33.6448C17.8201 33.7588 17.821 33.8719 17.8219 33.9841C17.8174 34.0954 17.813 34.2058 17.8085 34.3153C17.8005 34.423 17.7925 34.5299 17.7845 34.6367C17.7738 34.7427 17.7604 34.846 17.7488 34.9493C17.7204 35.154 17.6901 35.3535 17.6509 35.5449C17.6411 35.593 17.6322 35.6402 17.6224 35.6883C17.6126 35.7355 17.6019 35.7818 17.5912 35.8281C17.569 35.9207 17.5494 36.0124 17.5263 36.1023C17.5022 36.1904 17.4782 36.2786 17.455 36.365C17.4319 36.4522 17.4043 36.5359 17.3793 36.6187C17.3313 36.7852 17.2743 36.9437 17.2217 37.0968C17.1683 37.25 17.1104 37.3951 17.057 37.5367C16.9991 37.6756 16.9439 37.81 16.8887 37.9374C16.8326 38.0647 16.7766 38.1849 16.724 38.3006C16.6679 38.4146 16.6145 38.5232 16.5646 38.6265C16.4596 38.8304 16.3643 39.0103 16.2762 39.1652C16.1889 39.3192 16.115 39.451 16.05 39.5543C15.9227 39.7635 15.8514 39.8722 15.8514 39.8722L15.8265 39.8624C15.8265 39.8624 15.8497 39.7333 15.8986 39.4955C15.9049 39.4662 15.912 39.435 15.9182 39.4012C15.9245 39.3682 15.9316 39.3335 15.9387 39.297C15.9521 39.2231 15.9681 39.1438 15.9859 39.0584C16.0037 38.9729 16.0197 38.8803 16.0366 38.7815C16.0553 38.6835 16.0758 38.5793 16.0945 38.4689C16.1132 38.3594 16.1328 38.2437 16.1533 38.1217C16.172 38.0006 16.1916 37.8742 16.212 37.7415C16.2299 37.6097 16.2486 37.4726 16.2681 37.331C16.2762 37.2598 16.2842 37.1877 16.2931 37.1138C16.3002 37.0399 16.3118 36.966 16.318 36.8903C16.3474 36.5876 16.3714 36.267 16.383 35.9331C16.3875 35.8494 16.3866 35.7648 16.3883 35.6794C16.3892 35.6366 16.3901 35.5939 16.391 35.5511C16.3901 35.5075 16.3892 35.4648 16.3892 35.4212C16.3875 35.3348 16.3883 35.2466 16.383 35.1585C16.3785 35.0703 16.3777 34.9822 16.3705 34.8923C16.3296 34.1782 16.1996 33.4303 15.928 32.7126C15.9111 32.6681 15.896 32.6227 15.8764 32.5782C15.8577 32.5345 15.839 32.49 15.8203 32.4446L15.7927 32.3778L15.7615 32.3119C15.741 32.2683 15.7206 32.2247 15.7001 32.1802C15.6796 32.1365 15.6565 32.0929 15.6342 32.0493C15.611 32.0057 15.5906 31.962 15.5656 31.9193C15.5167 31.8338 15.4704 31.7466 15.4169 31.6629C15.3163 31.491 15.1988 31.3272 15.0813 31.1616C15.0501 31.1206 15.0198 31.0805 14.9887 31.0396C14.9726 31.0191 14.9575 30.9986 14.9415 30.9782L14.8925 30.9185C14.8596 30.8784 14.8266 30.8384 14.7946 30.7983C14.7598 30.7591 14.7251 30.7199 14.6913 30.6799L14.6396 30.6202L14.5862 30.5623C14.5506 30.5232 14.5141 30.4849 14.4785 30.4457C14.4411 30.4074 14.4037 30.3691 14.3663 30.3308L14.3102 30.273L14.2514 30.2169C14.2131 30.1795 14.174 30.1412 14.1357 30.1038C14.0956 30.0664 14.0555 30.0299 14.0155 29.9925C13.9362 29.9168 13.8508 29.8456 13.768 29.7726C13.4305 29.4814 13.0646 29.2045 12.6835 28.9347C11.9151 28.3987 11.0737 27.901 10.2064 27.4193C9.33831 26.9376 8.44348 26.4737 7.55755 26.0098C7.33584 25.8932 7.11503 25.7765 6.8951 25.6617C6.67429 25.5468 6.45615 25.4293 6.23711 25.3135C6.18191 25.2842 6.12671 25.2548 6.0715 25.2254C6.01363 25.1933 5.95575 25.1622 5.89788 25.1301C5.84089 25.0981 5.78302 25.0669 5.72603 25.0349C5.66905 25.001 5.61207 24.9681 5.55597 24.9351C5.49899 24.9022 5.44289 24.8693 5.38591 24.8354C5.33071 24.8007 5.27461 24.7669 5.21941 24.7321C5.1642 24.6974 5.109 24.6618 5.0538 24.6271C4.99948 24.5906 4.94517 24.5549 4.89086 24.5184C4.83654 24.4819 4.78312 24.4463 4.72881 24.4098C4.67628 24.3724 4.62285 24.335 4.57032 24.2967C4.51779 24.2593 4.46437 24.2228 4.41272 24.1837C4.36108 24.1436 4.31033 24.1044 4.25869 24.0652C4.0539 23.9094 3.85534 23.7447 3.66569 23.5755C3.28372 23.2372 2.93558 22.8695 2.62751 22.4839C2.54916 22.3895 2.47704 22.2889 2.40402 22.191C2.36752 22.1429 2.33368 22.0913 2.29896 22.0414C2.26512 21.9915 2.22951 21.9426 2.19746 21.8909C2.13335 21.7885 2.06835 21.6888 2.00959 21.5846C1.9802 21.533 1.94993 21.4822 1.92144 21.4297C1.89384 21.3781 1.86712 21.3255 1.83952 21.2739C1.81192 21.2223 1.78699 21.1688 1.76206 21.1172C1.73713 21.0638 1.71131 21.013 1.68816 20.9596C1.64275 20.8536 1.59556 20.7503 1.55638 20.6435C1.47447 20.4325 1.4068 20.2215 1.3507 20.0122C1.33735 19.9597 1.32399 19.9072 1.31064 19.8555C1.29906 19.8039 1.28749 19.7513 1.2768 19.6997C1.27146 19.6739 1.26523 19.6481 1.25988 19.6222C1.25543 19.5973 1.25098 19.5706 1.24653 19.5457C1.23673 19.494 1.22783 19.4433 1.21982 19.3925C1.20557 19.2901 1.19043 19.1895 1.18153 19.0898C1.17708 19.0399 1.17085 18.991 1.16729 18.942C1.16461 18.893 1.16105 18.844 1.15838 18.7951C1.15482 18.747 1.15482 18.6989 1.15304 18.6508C1.15215 18.6036 1.15037 18.5565 1.15037 18.5093C1.15126 18.4621 1.15126 18.4149 1.15126 18.3695C1.15304 18.3232 1.15482 18.2769 1.1566 18.2315C1.15749 18.2092 1.15838 18.1861 1.15927 18.1638C1.16105 18.1415 1.16283 18.1184 1.16461 18.0961C1.16729 18.0516 1.17085 18.008 1.17441 17.9635C1.18331 17.8762 1.19133 17.7907 1.20379 17.707C1.29372 17.0348 1.48159 16.4836 1.66946 16.0536C1.76384 15.839 1.86 15.6538 1.94904 15.4971C1.99445 15.4187 2.0363 15.3466 2.07725 15.2825C2.11821 15.2184 2.15739 15.1605 2.19211 15.1098C2.26156 15.0074 2.32033 14.9335 2.3595 14.8836C2.39957 14.8338 2.42183 14.8088 2.42183 14.8088L2.44498 14.8231Z" fill="white"/>
<mask id="mask0_27_181" style="mask-type:luminance" maskUnits="userSpaceOnUse" x="9" y="22" width="13" height="16">
<path d="M9.57337 22.7938H21.4608V37.8376H9.57337V22.7938Z" fill="white"/>
</mask>
<g mask="url(#mask0_27_181)">
<path d="M9.63302 22.8846C9.63302 22.8846 9.71761 22.8944 9.87432 22.9175C9.95267 22.9291 10.0488 22.9442 10.1619 22.9638C10.275 22.9816 10.4041 23.0057 10.5483 23.0324C10.8377 23.0849 11.1867 23.1561 11.5838 23.247C11.981 23.3378 12.4279 23.4491 12.9114 23.5853C13.3949 23.7215 13.9158 23.8827 14.4625 24.0777C15.0083 24.2727 15.5808 24.5006 16.1631 24.7749C16.3091 24.8416 16.4551 24.9147 16.602 24.9886C16.7481 25.0642 16.8959 25.1399 17.0428 25.2227C17.3366 25.3848 17.6304 25.5602 17.9207 25.7525C18.5003 26.1371 19.0684 26.585 19.5804 27.1139C20.0923 27.6401 20.5437 28.2465 20.8857 28.9036C21.2267 29.5598 21.4591 30.2569 21.5793 30.9372C21.638 31.2773 21.6781 31.613 21.6915 31.9389L21.695 31.9994L21.6968 32.0608C21.6977 32.1009 21.6986 32.141 21.6995 32.1819C21.7004 32.2621 21.703 32.3413 21.7004 32.4206C21.6986 32.4989 21.6968 32.5782 21.695 32.6556C21.6932 32.7331 21.687 32.8097 21.6825 32.8862C21.6647 33.1916 21.6273 33.4837 21.5855 33.7633C21.5606 33.9022 21.5374 34.0393 21.5107 34.1719C21.4822 34.3046 21.4555 34.4346 21.4243 34.5601C21.3923 34.6866 21.3629 34.8095 21.3291 34.9279C21.2952 35.0463 21.2605 35.162 21.2267 35.2742C21.1546 35.4968 21.0851 35.707 21.0103 35.9011C20.9916 35.9491 20.9738 35.9972 20.9569 36.0435C20.9382 36.0907 20.9195 36.1361 20.9008 36.1806C20.8643 36.2697 20.8287 36.356 20.7939 36.4388C20.7227 36.6027 20.6533 36.7514 20.59 36.8849C20.4609 37.152 20.3523 37.3568 20.2731 37.4948C20.1956 37.6329 20.152 37.7059 20.152 37.7059L20.1306 37.6987C20.1306 37.6987 20.1342 37.6142 20.1466 37.4566C20.1529 37.3782 20.1609 37.2811 20.1698 37.1681C20.1742 37.1111 20.1787 37.0505 20.1831 36.9855C20.1885 36.9205 20.1947 36.8529 20.201 36.7799C20.2099 36.6347 20.2223 36.4745 20.2348 36.3017C20.2446 36.1281 20.2606 35.942 20.2686 35.7426C20.2713 35.6936 20.274 35.6428 20.2766 35.5921C20.2784 35.5663 20.2802 35.5405 20.2811 35.5146C20.2829 35.4888 20.2838 35.463 20.2846 35.4363C20.2882 35.3312 20.2927 35.2235 20.2971 35.114C20.2989 35.0036 20.3016 34.8905 20.3042 34.7756C20.3051 34.6608 20.3051 34.5441 20.306 34.4239C20.3069 34.3643 20.3042 34.3046 20.3033 34.2441C20.3025 34.1826 20.3016 34.1221 20.3007 34.0606C20.2962 33.9378 20.2918 33.8131 20.2864 33.6858C20.2829 33.6235 20.2784 33.5594 20.274 33.4961C20.2695 33.432 20.2677 33.3679 20.2606 33.3029C20.2481 33.1747 20.2392 33.0438 20.2223 32.9138C20.1636 32.3903 20.0612 31.8552 19.9018 31.3316C19.7424 30.8081 19.5198 30.3006 19.234 29.8206C18.9464 29.3407 18.5885 28.8938 18.1816 28.4762C17.7747 28.0577 17.3126 27.6748 16.83 27.316C16.7685 27.2715 16.708 27.227 16.6483 27.1825C16.586 27.1388 16.5246 27.0952 16.4631 27.0516C16.4017 27.0088 16.3385 26.967 16.277 26.9242L16.1844 26.8601L16.0901 26.7978C15.9645 26.7141 15.8381 26.6322 15.7134 26.5512C15.6493 26.5111 15.5861 26.4719 15.5238 26.4319C15.4606 26.3918 15.3973 26.3526 15.3341 26.3134C14.8293 26.0009 14.3244 25.7098 13.8419 25.432C13.3539 25.1542 12.8927 24.8915 12.4662 24.6493C11.6088 24.1605 10.8911 23.734 10.397 23.4188C10.3346 23.3787 10.2759 23.3422 10.2207 23.3066C10.1655 23.2719 10.1147 23.2372 10.0666 23.206C9.97137 23.1437 9.89035 23.0894 9.82446 23.0449C9.69357 22.9558 9.62501 22.9051 9.62501 22.9051L9.63302 22.8846Z" fill="white"/>
</g>
<mask id="mask1_27_181" style="mask-type:luminance" maskUnits="userSpaceOnUse" x="3" y="9" width="8" height="14">
<path d="M3.647 9.99365H10.0292V22.3379H3.647V9.99365Z" fill="white"/>
</mask>
<g mask="url(#mask1_27_181)">
<path d="M8.81121 21.9968C8.79785 21.9194 8.78361 21.841 8.76936 21.7636C8.76402 21.7351 8.75868 21.7075 8.75333 21.679C8.69012 21.3602 8.63936 21.0308 8.56457 20.6978C8.49156 20.3657 8.42656 20.0264 8.34465 19.689C8.25828 19.3551 8.18438 19.0159 8.09178 18.69C8.0811 18.6508 8.07041 18.6125 8.05973 18.5742C7.97959 18.2848 7.9048 18.0017 7.81398 17.7293C7.71782 17.4185 7.61899 17.122 7.5157 16.8407C7.42132 16.5611 7.30557 16.3029 7.21119 16.0607C7.1364 15.8951 7.06695 15.7375 6.9975 15.5941C6.96901 15.5336 6.94052 15.4766 6.91203 15.4214C6.81854 15.2326 6.72416 15.0732 6.6458 14.9424C6.48999 14.6841 6.37067 14.5542 6.37067 14.5542L6.31992 14.5942C6.31992 14.5942 6.41875 14.7296 6.5443 14.9985C6.60574 15.1329 6.68231 15.2958 6.75265 15.4917C6.82922 15.6823 6.90045 15.9058 6.97791 16.1462C7.04469 16.3946 7.13017 16.6555 7.19339 16.9413C7.26551 17.2235 7.32872 17.5245 7.39016 17.8361C7.45783 18.1468 7.50235 18.4754 7.56022 18.8031C7.61365 19.1316 7.65104 19.4708 7.69912 19.8038C7.74364 20.1413 7.77213 20.4805 7.80597 20.8118C7.84514 21.143 7.86117 21.4733 7.8861 21.7894C7.89946 21.9416 7.91192 22.0903 7.92261 22.2381C7.20496 21.7867 6.59861 21.3478 6.09109 20.9168C3.52413 18.7381 3.47872 16.7605 4.23465 14.3556C5.17845 11.3612 4.89709 10.0034 4.89709 10.0034C5.46961 10.389 5.98336 10.7772 6.44191 11.1671C6.8871 11.5438 7.27975 11.9222 7.627 12.2997C7.70179 12.3807 7.7748 12.4626 7.84514 12.5437C8.67765 13.5017 9.21989 14.4518 9.5529 15.3653C10.2216 17.2039 10.0373 18.8885 9.64728 20.1662C9.51283 20.6096 9.35256 21.0041 9.19496 21.3389C9.10236 21.5356 9.01065 21.7119 8.92429 21.8651C8.88333 21.9114 8.84593 21.955 8.81121 21.9968Z" fill="white"/>
</g>
<path d="M10.1753 21.1608C10.2073 21.1305 10.2403 21.0994 10.2741 21.0691C10.2857 21.0584 10.2981 21.0468 10.3106 21.0362C10.4486 20.9124 10.584 20.7788 10.7326 20.6533C10.8805 20.5269 11.0265 20.3942 11.1787 20.2678C11.3328 20.1449 11.4832 20.0158 11.6373 19.8991C11.6551 19.8849 11.6738 19.8715 11.6916 19.8573C11.8269 19.7522 11.9587 19.6489 12.0932 19.5563C12.2436 19.4477 12.3905 19.3462 12.5339 19.2527C12.6737 19.1583 12.8144 19.08 12.9408 19.0016C13.0316 18.9518 13.118 18.9037 13.1981 18.8618C13.2319 18.844 13.2649 18.828 13.2969 18.8129C13.4038 18.7586 13.5017 18.7176 13.5828 18.6856C13.7412 18.6206 13.841 18.6027 13.841 18.6027L13.8499 18.6384C13.8499 18.6384 13.7591 18.666 13.6095 18.7452C13.5347 18.7862 13.4439 18.8342 13.345 18.8992C13.2444 18.9598 13.1358 19.0373 13.0183 19.1209C12.9025 19.2109 12.7734 19.3008 12.647 19.4094C12.517 19.5136 12.3852 19.6294 12.2507 19.7504C12.1127 19.8689 11.9792 20.0033 11.8412 20.1324C11.7041 20.2642 11.5705 20.4058 11.4343 20.542C11.298 20.6809 11.1689 20.826 11.0398 20.9649C10.9081 21.1029 10.7879 21.2481 10.6677 21.3843C10.6098 21.4484 10.5528 21.5125 10.4976 21.5757C10.9802 21.6158 11.4076 21.6238 11.786 21.6015C13.7047 21.4876 14.4037 20.6016 14.8836 19.2447C15.4802 17.5548 16.074 17.0321 16.074 17.0321C15.6805 17.0107 15.3128 17.0116 14.97 17.0321C14.6379 17.0517 14.3289 17.09 14.0404 17.1434C13.979 17.1541 13.9184 17.1666 13.8579 17.179C13.15 17.3313 12.5757 17.5788 12.111 17.8806C11.1752 18.4906 10.6819 19.3222 10.421 20.0389C10.3311 20.2873 10.2688 20.5224 10.2251 20.729C10.2002 20.851 10.1815 20.9623 10.1681 21.062C10.1708 21.0976 10.1735 21.1305 10.1753 21.1608Z" fill="white"/>
<mask id="mask2_27_181" style="mask-type:luminance" maskUnits="userSpaceOnUse" x="0" y="17" width="15" height="25">
<path d="M0.106842 17.3232H14.8159V41.0287H0.106842V17.3232Z" fill="white"/>
</mask>
<g mask="url(#mask2_27_181)">
<path d="M14.669 37.5438L14.6405 37.5465L14.645 37.5456C14.5729 37.559 14.5096 37.5679 14.4411 37.5883L14.3414 37.6142L14.2399 37.648C14.2069 37.6596 14.1704 37.6703 14.1419 37.6809L14.044 37.7201L13.9451 37.7593L13.9202 37.7691L13.914 37.7709L13.9113 37.7726C13.9113 37.7726 13.9069 37.7744 13.9104 37.7726L13.8979 37.778L13.8499 37.8002L13.6584 37.8866L13.6095 37.908L13.5979 37.9142L13.5952 37.9151C13.5934 37.916 13.5961 37.9142 13.5934 37.916L13.5881 37.9187L13.5641 37.9302L13.4688 37.9774L13.28 38.0718L13.0939 38.1715C12.9711 38.2383 12.8482 38.3069 12.7262 38.3772C12.6051 38.4467 12.4805 38.5188 12.3629 38.5891L11.9997 38.8108L11.8198 38.9239L11.6444 39.037C11.5242 39.1153 11.4058 39.1884 11.2882 39.2676L10.9365 39.5018L10.5804 39.7368L10.4023 39.8535L10.3578 39.882L10.3079 39.9122L10.2153 39.9674L10.0292 40.0787C9.9687 40.1152 9.90459 40.15 9.84048 40.1856C9.71316 40.255 9.58405 40.3218 9.45317 40.3841C9.3205 40.4474 9.18961 40.5061 9.05071 40.5622C8.9136 40.6156 8.7747 40.6664 8.63224 40.71C8.48977 40.7536 8.34375 40.791 8.19595 40.8213C8.15944 40.8284 8.12205 40.8356 8.08465 40.8418L8.07753 40.8427L8.07397 40.8436C8.06239 40.8454 8.08643 40.8409 8.08287 40.8418L8.06417 40.8454L8.02767 40.8516L7.96623 40.8596L7.86028 40.8721L7.80685 40.8783H7.80418L7.78726 40.8801H7.78014L7.76768 40.881L7.74096 40.8819L7.63145 40.8872C7.5985 40.889 7.55309 40.8917 7.497 40.889L7.39639 40.8854L7.36968 40.8845L7.35187 40.8827L7.3118 40.8801L7.29934 40.8783L7.26728 40.8756L7.16044 40.8623L7.14708 40.8605L7.14085 40.8596L7.13194 40.8578L7.10523 40.8534L7.07941 40.8489L7.07318 40.8471L7.04023 40.8409L7.02688 40.8373L6.92359 40.8151L6.91024 40.8115L6.90757 40.8106C6.90134 40.8097 6.91558 40.8133 6.89332 40.808L6.88709 40.8062L6.86216 40.7982C6.84168 40.7919 6.81942 40.7857 6.80072 40.7795C6.64491 40.7287 6.49532 40.6584 6.35553 40.5711C6.3217 40.5497 6.28519 40.5248 6.25492 40.5034C6.21752 40.4767 6.18725 40.4536 6.15342 40.426C6.08931 40.3735 6.02876 40.3174 5.97089 40.2568C5.74117 40.0128 5.57912 39.7155 5.48919 39.3994C5.46515 39.3166 5.44912 39.2355 5.43577 39.1581L5.43399 39.1429L5.43221 39.1358V39.1323C5.43043 39.1242 5.4331 39.1456 5.42954 39.1127L5.42686 39.086L5.42419 39.0601L5.42241 39.0468L5.42152 39.0406L5.42063 39.021L5.41618 38.9684L5.41529 38.9551L5.4144 38.931L5.41351 38.9043V38.8776L5.41262 38.8714V38.8678C5.41262 38.8571 5.41262 38.8874 5.41351 38.8429V38.8295L5.41618 38.777L5.41707 38.7636L5.41796 38.7378L5.41974 38.7245V38.7218C5.41974 38.7147 5.41885 38.7271 5.41885 38.7254L5.41974 38.7182L5.42152 38.6986L5.4233 38.6835L5.42776 38.6443L5.42954 38.6319L5.43043 38.6283C5.42776 38.6425 5.42954 38.6301 5.42954 38.6328V38.6292L5.4331 38.6052L5.43577 38.5927L5.43666 38.5865C5.43488 38.5945 5.43666 38.5865 5.43577 38.5873L5.43666 38.5838L5.44556 38.5295L5.45358 38.4769L5.45892 38.4333L5.46604 38.3808L5.47049 38.3371L5.47495 38.2846L5.47673 38.2713C5.47584 38.2793 5.47673 38.2713 5.47673 38.273V38.2624L5.4794 38.2392C5.48296 38.1787 5.48563 38.1154 5.48385 38.0558C5.48385 38.0255 5.48207 37.9961 5.48029 37.9659L5.47316 37.867C5.46693 37.794 5.46159 37.7326 5.45358 37.6756C5.44556 37.6195 5.43399 37.5714 5.42152 37.5376C5.41529 37.5216 5.40906 37.5082 5.40372 37.502C5.40193 37.4975 5.39926 37.4975 5.39837 37.4948C5.38413 37.4779 5.41796 37.5162 5.41351 37.5118L5.40639 37.5046L5.39748 37.4948L5.38324 37.4806C5.38146 37.4779 5.37967 37.477 5.38146 37.4779C5.38235 37.4815 5.38413 37.4842 5.3868 37.4868C5.38769 37.4877 5.38947 37.4886 5.39036 37.4895C5.38502 37.4877 5.38324 37.4851 5.37522 37.4815C5.36276 37.4753 5.34495 37.4681 5.32358 37.4601C5.27995 37.445 5.22208 37.4307 5.15708 37.4165C5.09119 37.4023 5.01818 37.3871 4.93537 37.3649C4.89353 37.3533 4.84901 37.3399 4.80093 37.3212C4.77778 37.3132 4.75018 37.2999 4.72614 37.2892L4.71634 37.2847L4.6923 37.2714L4.68073 37.2651L4.65758 37.2518L4.56498 37.1992L4.55963 37.1966L4.53737 37.1814L4.5258 37.1743L4.51511 37.1672L4.49731 37.1556L4.44477 37.1173L4.42341 37.1013L4.39313 37.0773L4.37265 37.0612L4.36731 37.0568L4.35039 37.0425L4.34594 37.0381L4.32992 37.0247L4.28807 36.9838L4.25067 36.9464L4.23554 36.9303L4.22307 36.9143L4.19992 36.8849L4.18745 36.8698L4.18211 36.8618L4.18033 36.86L4.1643 36.836L4.16163 36.8324L4.14205 36.8057L4.13314 36.7923L4.13047 36.7888L4.11711 36.7656L4.11355 36.7585L4.09664 36.73L4.08773 36.7131L4.07438 36.6873C4.05568 36.6499 4.04232 36.616 4.03253 36.5902L4.02095 36.5564L4.01917 36.5528L4.01205 36.5288L4.01116 36.527L4.00493 36.503L4.00047 36.4869L3.99691 36.4745L3.98979 36.4433L3.98356 36.4113L3.98 36.3952L3.97911 36.3908V36.389L3.97376 36.3507L3.96931 36.3089L3.96308 36.243L3.9613 36.2216L3.96219 36.2011L3.96486 36.1361L3.96575 36.1032L3.96664 36.0863V36.0783L3.96753 36.0747V36.072L3.97109 36.0471L3.97822 35.9954L3.98178 35.9705L3.98356 35.9572V35.9545L3.98712 35.9349L3.99424 35.9046L4.00137 35.8708C4.00671 35.8485 4.01205 35.8272 4.01828 35.8058C4.03075 35.7639 4.0441 35.7221 4.05924 35.682C4.07438 35.642 4.0904 35.6028 4.10643 35.5663L4.11979 35.5369L4.13314 35.5084L4.16074 35.455C4.19725 35.3829 4.23732 35.3134 4.27916 35.2475L4.49909 35.7933L4.33971 35.7488L4.26047 35.7266C4.24711 35.7221 4.23375 35.7194 4.21951 35.7141L4.183 35.7007C4.1278 35.682 4.07883 35.6616 4.0263 35.6393C3.97554 35.617 3.92479 35.5939 3.87493 35.5681C3.82507 35.5422 3.77521 35.5155 3.72802 35.4862L3.6924 35.4648L3.67103 35.4514L3.6559 35.4407C3.62919 35.4238 3.60693 35.4078 3.58289 35.3909C3.5357 35.357 3.4894 35.3214 3.44488 35.2823C3.40214 35.2449 3.35673 35.2012 3.31577 35.1576C3.27392 35.1122 3.23208 35.0632 3.19468 35.0098C3.17598 34.984 3.15817 34.9573 3.14215 34.9297L3.11544 34.8843L3.09852 34.8513L3.09674 34.8477V34.8469L3.08783 34.8317L3.08694 34.829L3.08338 34.821L3.06914 34.7872L3.05489 34.7569L3.04955 34.7436L3.03708 34.7097L3.0264 34.6786L3.02551 34.675L3.02284 34.6661L3.01839 34.6483L3.0077 34.6065L3.00414 34.5886L3.00325 34.586C2.99256 34.5441 3.00058 34.5744 2.99791 34.5646V34.5637L2.99434 34.5406V34.5361L2.99345 34.5343V34.5326L2.98989 34.513V34.5121L2.98811 34.4943L2.98455 34.4578L2.98366 34.4489V34.448C2.98455 34.4551 2.97743 34.3883 2.9801 34.4159L2.98099 34.415V34.3901L2.98277 34.3536L2.98366 34.3073L2.98455 34.2984L2.98722 34.2797L2.99167 34.2441L2.99256 34.2396V34.2387L2.99702 34.2076V34.2049L2.99969 34.196L3.01304 34.1426L3.01393 34.1381L3.02195 34.1034L3.02284 34.1007L3.0264 34.0927L3.03352 34.0749L3.04688 34.042L3.04866 34.0375L3.04955 34.0348C3.06379 33.9939 3.054 34.0233 3.05667 34.0144V34.0135L3.05756 34.0126L3.06112 34.0046L3.06914 33.9876L3.07181 33.9841V33.9832L3.07982 33.9645L3.08071 33.9627L3.08605 33.9547L3.09496 33.9387L3.09763 33.9351V33.9342C3.09585 33.9387 3.11544 33.9004 3.10742 33.9164V33.9155L3.1092 33.9128L3.11455 33.9057L3.12434 33.8906L3.14482 33.8603L3.16263 33.8318L3.16441 33.83L3.16708 33.8265L3.18578 33.806L3.20982 33.7793L3.21516 33.7739V33.7731L3.22941 33.7544H3.2303L3.23653 33.7472L3.24988 33.7348L3.25701 33.7285L3.27303 33.7125L3.27481 33.7116L3.2757 33.7107C3.27927 33.7063 3.27125 33.7152 3.27214 33.7143L3.27303 33.7134C3.27749 33.709 3.27838 33.7072 3.28906 33.6965C3.2944 33.6911 3.30509 33.6805 3.31933 33.6707C3.33447 33.6591 3.32022 33.6689 3.31221 33.676L3.28817 33.6974L3.29084 33.6956L3.29885 33.6885V33.6876L3.29975 33.6867L3.31221 33.6769L3.32111 33.6707C3.322 33.6698 3.31488 33.676 3.31755 33.6742V33.6733H3.31844L3.31933 33.6724L3.322 33.6707L3.32557 33.6671L3.32824 33.6653L3.33803 33.6564L3.33892 33.6555L3.34337 33.6529L3.35139 33.6466L3.36029 33.6404L3.36296 33.6386L3.36385 33.6377H3.36474C3.34694 33.6537 3.3594 33.6422 3.35584 33.6457L3.36029 33.6422L3.37365 33.6297C3.43954 33.587 3.50364 33.538 3.56508 33.4846C3.58021 33.4703 3.59535 33.457 3.61049 33.4427L3.63186 33.4222L3.65323 33.4009C3.68172 33.3724 3.70754 33.3421 3.73336 33.3118L3.73425 33.3109L3.90788 33.5594L3.88829 33.5647L3.87849 33.5665L3.87582 33.5674C3.87671 33.5674 3.85712 33.5701 3.86425 33.5692L3.8589 33.5701L3.81617 33.5781L3.73336 33.5914C3.67727 33.6012 3.62206 33.6074 3.56686 33.6155C3.45556 33.6306 3.34426 33.6404 3.23208 33.6493C3.00859 33.668 2.78421 33.6733 2.55717 33.6671L2.51443 33.6662H2.50374L2.4984 33.6653C2.50464 33.6662 2.4984 33.6653 2.49929 33.6662L2.49662 33.6653H2.49128L2.4619 33.6627L2.37998 33.6564L2.21704 33.6431L2.05321 33.6288L2.01225 33.6244L1.96417 33.619L1.88315 33.6092C1.7674 33.5941 1.65343 33.5754 1.53679 33.5514C1.41926 33.5273 1.29906 33.4953 1.17084 33.4436C1.13879 33.4312 1.10496 33.4133 1.07201 33.3982C1.05599 33.3902 1.03907 33.3795 1.02215 33.3706C1.00523 33.3599 0.989207 33.3519 0.9714 33.3386C0.903731 33.294 0.835171 33.2335 0.776406 33.1587C0.717641 33.0812 0.674012 32.9904 0.649972 32.9005C0.627712 32.8114 0.62148 32.7269 0.623261 32.6503C0.627712 32.4963 0.657985 32.3707 0.69093 32.2505C0.723874 32.1321 0.76216 32.0217 0.804008 31.9139C0.887704 31.7003 0.976742 31.4981 1.06756 31.2978L1.13523 31.15L1.19934 31.0049C1.24118 30.9078 1.28125 30.809 1.32221 30.7101C1.40412 30.5125 1.47892 30.3113 1.5546 30.1091C1.63028 29.9079 1.7024 29.7031 1.77185 29.4992L1.87425 29.1903L1.92233 29.0389L1.97041 28.8822L2.16006 28.2545L2.1841 28.1761L2.18677 28.1663L2.18855 28.1619C2.18944 28.1592 2.18677 28.1708 2.18766 28.1654L2.18855 28.1628L2.19389 28.1432L2.20458 28.1031L2.24821 27.9455L2.29272 27.787L2.31409 27.7087L2.31944 27.6882L2.32033 27.6864C2.32211 27.6766 2.31855 27.6953 2.31944 27.6926L2.32033 27.6873C2.32033 27.6855 2.32211 27.6784 2.32122 27.6837C2.32033 27.69 2.32122 27.6935 2.32211 27.6989C2.32211 27.7051 2.32478 27.7131 2.32923 27.7238C2.33724 27.7452 2.36039 27.7648 2.3693 27.7683C2.37998 27.7737 2.38087 27.7719 2.37731 27.771C2.37731 27.7692 2.36039 27.7665 2.34704 27.7639L2.29985 27.755L2.21971 27.7381L2.20012 27.7345L2.18944 27.7318L2.18766 27.7309C2.16629 27.7265 2.17965 27.7292 2.1743 27.7283L2.16985 27.7265L2.13068 27.7131C2.02116 27.6757 1.91609 27.6339 1.8137 27.5831C1.76206 27.5591 1.71131 27.5324 1.66144 27.5048L1.64987 27.4985L1.64097 27.4923L1.62405 27.4816L1.58843 27.4611C1.56528 27.446 1.54213 27.4335 1.5172 27.4166C1.41926 27.3534 1.33111 27.284 1.24475 27.2101C1.16016 27.1344 1.08092 27.0534 1.00969 26.9661C0.939346 26.8771 0.874348 26.7862 0.828048 26.6785L0.747914 26.496L0.886813 26.6393C0.896608 26.6491 0.905511 26.6598 0.915305 26.6696C0.9251 26.6794 0.936675 26.6892 0.947359 26.6972C0.968728 26.715 0.992769 26.7301 1.01681 26.7435C1.04174 26.7569 1.06756 26.7693 1.09338 26.7809L1.11297 26.7889L1.13078 26.796L1.17174 26.813L1.17619 26.8156C1.17886 26.8156 1.18064 26.8165 1.18331 26.8174L1.18598 26.8183L1.19489 26.8227H1.19578L1.19667 26.8236L1.19132 26.8201C1.20913 26.8272 1.22783 26.8334 1.24564 26.8414L1.26077 26.8512C1.2581 26.8486 1.25454 26.8459 1.25187 26.8441L1.24386 26.8406C1.24208 26.8397 1.24475 26.8406 1.24386 26.8406H1.24475L1.24742 26.8414L1.26612 26.8486C1.27502 26.8521 1.28214 26.8548 1.29105 26.8584L1.21803 26.9812L1.21447 26.9786L1.22249 26.9839L1.1842 26.9545L1.18776 26.9581C1.17975 26.951 1.16906 26.9421 1.16283 26.9376L1.14235 26.9189C1.12811 26.9056 1.11386 26.8922 1.1005 26.8788C1.07468 26.8512 1.04886 26.8227 1.02571 26.7934C1.00256 26.7631 0.980303 26.7328 0.959825 26.7008C0.94914 26.6847 0.939346 26.6687 0.930442 26.6518C0.921538 26.6349 0.912634 26.6188 0.904621 26.601C0.896608 26.5841 0.887704 26.5672 0.880581 26.5494C0.874348 26.5316 0.866334 26.5147 0.860102 26.496L0.843185 26.4426L0.829829 26.3873C0.825377 26.3687 0.823596 26.35 0.820035 26.3313C0.816473 26.3126 0.815583 26.2939 0.813802 26.2752C0.812912 26.2565 0.810241 26.2387 0.811131 26.22L0.812021 26.1639V26.1612L0.813802 26.0739L0.880581 26.1434C0.896608 26.1594 0.914415 26.1781 0.932223 26.195C0.95003 26.2119 0.968728 26.228 0.987426 26.244C1.02482 26.2752 1.06311 26.3054 1.10229 26.333C1.11208 26.3402 1.12187 26.3464 1.13256 26.3535L1.13968 26.358L1.14324 26.3606L1.14502 26.3624H1.14591C1.14413 26.3615 1.15037 26.3669 1.14235 26.3597H1.14324L1.14413 26.3606H1.14502L1.14769 26.3633L1.15037 26.3651L1.15393 26.3678L1.16194 26.3731C1.1842 26.3882 1.20201 26.3989 1.22338 26.4105C1.26344 26.4354 1.30618 26.4577 1.34803 26.4782C1.39077 26.4995 1.43351 26.5182 1.47714 26.5352C1.51987 26.5539 1.56439 26.5681 1.60891 26.5832C1.65343 26.5984 1.69795 26.6108 1.74336 26.6224C1.78788 26.6349 1.83418 26.6438 1.87959 26.6536L1.90274 26.6607L1.90096 26.6598L1.8787 26.6536C1.92589 26.6625 1.97308 26.6687 2.01938 26.6723C2.06479 26.6758 2.11109 26.6776 2.15115 26.6741C2.17074 26.6732 2.18944 26.6705 2.20458 26.6678L2.21348 26.666C2.21704 26.6651 2.21615 26.6651 2.21704 26.6651L2.22595 26.6625C2.23218 26.6616 2.23663 26.6589 2.24019 26.658C2.24286 26.6562 2.24464 26.6545 2.24108 26.6571L2.23396 26.6625L2.2206 26.6758L2.22238 26.6741L2.22862 26.666C2.22951 26.666 2.23129 26.6643 2.2304 26.6651L2.22684 26.6678C2.22506 26.6705 2.22327 26.6723 2.22149 26.6741C2.21437 26.6865 2.21437 26.6865 2.21259 26.6901C2.2117 26.6919 2.21081 26.6936 2.21081 26.6954C2.20992 26.6972 2.21081 26.6972 2.21081 26.6936C2.21259 26.6821 2.20814 26.6464 2.19923 26.6278C2.20013 26.6295 2.19211 26.6144 2.18054 26.5984C2.16896 26.5823 2.15472 26.5645 2.13958 26.5458L2.03451 26.4239C1.99979 26.3811 1.96239 26.3366 1.92767 26.293C1.78788 26.1158 1.66234 25.927 1.54926 25.7356C1.43529 25.545 1.33111 25.3474 1.23495 25.1497C1.1379 24.9521 1.04975 24.7508 0.966057 24.5487L0.734558 23.937L0.677574 23.7848L0.66956 23.7661L0.664218 23.7492L0.660657 23.7394L0.647301 23.7011L0.62148 23.6245L0.517305 23.3164L0.466554 23.1615L0.441623 23.0814L0.418473 23.0021L0.373954 22.8463L0.351694 22.768L0.346352 22.751L0.344571 22.7412L0.339229 22.7217L0.330325 22.6816L0.292929 22.5258C0.278683 22.4688 0.267108 22.4145 0.256424 22.3602L0.22526 22.199L0.210124 22.118L0.185193 21.9577L0.17718 21.9087L0.171837 21.8687L0.149578 21.7039L0.134442 21.5419L0.126428 21.4582L0.123757 21.4181L0.121976 21.3977L0.120195 21.3843V21.3745L0.113072 21.2107L0.109511 21.1305L0.10773 21.0896L0.10684 21.0647V21.0442L0.105949 20.8821L0.10684 20.7966V20.7566L0.10862 20.7147L0.111292 20.6301L0.114853 20.5491L0.119305 20.4681L0.121086 20.4262L0.123757 20.3862C0.132661 20.2749 0.143345 20.1663 0.156701 20.0567C0.169166 19.9481 0.186084 19.8395 0.203891 19.7318C0.212795 19.6765 0.221699 19.624 0.232383 19.5688C0.242178 19.5154 0.253752 19.4611 0.265327 19.4077C0.311627 19.1931 0.365941 18.9812 0.431829 18.7719C0.496827 18.5636 0.570728 18.3579 0.653534 18.1558C0.674903 18.105 0.696272 18.0552 0.718531 18.0053L0.789762 17.8575L0.931332 17.5646L0.933113 17.561L1.02215 17.374L1.00612 17.5797L1.00434 17.602L0.927771 17.5975L0.929552 17.5752L1.00256 17.5939L1.00167 17.5957L0.883252 17.8985L0.825377 18.048C0.807569 18.0988 0.790652 18.1495 0.773735 18.2003C0.705176 18.4033 0.64552 18.609 0.594768 18.8173C0.544907 19.0257 0.500388 19.2349 0.466554 19.4459C0.45854 19.4985 0.450527 19.5501 0.443404 19.6035C0.43628 19.6543 0.430048 19.7095 0.423815 19.762C0.41224 19.868 0.402446 19.9748 0.394433 20.0808C0.385529 20.1867 0.379296 20.2936 0.376625 20.3986L0.374844 20.4396V20.4788L0.373954 20.5598V20.7183L0.374844 20.7575L0.375735 20.7984L0.379296 20.875L0.386419 21.0379L0.38731 21.0575C0.38731 21.0566 0.38731 21.0647 0.38731 21.0557V21.0629L0.3882 21.0727L0.391762 21.1136L0.398885 21.1946L0.41224 21.3549L0.430938 21.5098L0.450527 21.671L0.476348 21.8268L0.483471 21.8669L0.488813 21.898L0.519086 22.0574C0.523538 22.0806 0.530661 22.11 0.536003 22.1358L0.570728 22.2916C0.583193 22.3432 0.595659 22.394 0.609014 22.4421L0.651753 22.6006L0.662437 22.6388L0.66778 22.6593L0.670451 22.6682C0.665999 22.6549 0.66956 22.6664 0.66867 22.6638L0.66956 22.6656L0.671341 22.6709L0.696272 22.7484L0.745243 22.9024L0.770173 22.979L0.795104 23.0529L0.847637 23.2051L0.956263 23.5096L0.983865 23.5862L0.997221 23.6245L1.00078 23.6334L1.00167 23.6361C0.99722 23.6227 1.00078 23.6334 0.999892 23.6316L1.00256 23.6361L1.00969 23.6548L1.06934 23.8052L1.30885 24.4036C1.39344 24.5995 1.48337 24.7927 1.57597 24.9832C1.67035 25.1738 1.77007 25.359 1.8787 25.5388C1.98732 25.7187 2.10218 25.8905 2.23218 26.0517C2.26423 26.0926 2.29629 26.1318 2.33101 26.1719L2.43786 26.2956C2.45744 26.3188 2.47703 26.3428 2.49662 26.3704C2.5171 26.3989 2.53847 26.4283 2.56073 26.4808L2.56518 26.4897L2.5723 26.5093C2.57587 26.52 2.57854 26.5298 2.5821 26.5405C2.58744 26.5601 2.59189 26.5806 2.59456 26.6001C2.60169 26.6411 2.60436 26.683 2.59991 26.7319C2.59813 26.756 2.59278 26.7827 2.58477 26.8103C2.58032 26.8236 2.57498 26.8388 2.56874 26.853C2.56073 26.869 2.55539 26.8815 2.53936 26.9038L2.52868 26.918L2.52244 26.9251L2.52066 26.9278L2.51354 26.9358L2.51176 26.9376C2.48683 26.9625 2.50196 26.9474 2.49484 26.9545L2.48416 26.9634C2.47703 26.9688 2.46991 26.9741 2.46368 26.9786C2.43786 26.9964 2.4156 27.0071 2.39334 27.0168C2.37197 27.0258 2.35149 27.032 2.33101 27.0382C2.32033 27.0409 2.31142 27.0427 2.29985 27.0453L2.27314 27.0507C2.23485 27.0569 2.19923 27.0596 2.1654 27.0605C2.09773 27.0614 2.0354 27.056 1.97308 27.0471C1.91164 27.0373 1.85288 27.0231 1.795 27.0079L1.77808 27.0035L1.77274 27.0008L1.76829 26.999L1.79055 27.0062C1.73802 26.9901 1.68548 26.9723 1.63384 26.9518C1.5822 26.9314 1.53145 26.9082 1.48159 26.8833C1.38276 26.8325 1.28838 26.7729 1.20201 26.7025C1.15838 26.6678 1.11831 26.6304 1.07914 26.5912C1.06044 26.5717 1.03907 26.5485 1.02304 26.5298L1.01681 26.5227L1.01414 26.5191L1.01236 26.5173C1.01147 26.5165 1.01681 26.5218 1.01414 26.5191L1.01236 26.5173C1.00434 26.5102 1.01058 26.5147 1.0088 26.5138L1.00612 26.5111L1.00256 26.5067L0.99633 26.4986C0.987426 26.488 0.979413 26.4773 0.9714 26.4657C0.937565 26.4221 0.907292 26.3767 0.881471 26.3286C0.868115 26.3045 0.85565 26.2796 0.844965 26.2547C0.834281 26.2289 0.824487 26.2048 0.815583 26.1763L0.884142 26.1585L0.885032 26.1603L0.893936 26.2119C0.896608 26.228 0.901059 26.2449 0.904621 26.2618C0.909073 26.2778 0.912634 26.2947 0.917977 26.3108C0.923319 26.3268 0.92688 26.3428 0.933113 26.3589L0.950921 26.406L0.970509 26.4523C0.976742 26.4675 0.985646 26.4826 0.992769 26.4969C0.999892 26.512 1.0088 26.5262 1.01681 26.5414C1.03373 26.5699 1.05242 26.5984 1.07201 26.6251C1.09071 26.6527 1.11208 26.6785 1.13345 26.7043C1.15571 26.7293 1.17886 26.7533 1.20201 26.7773C1.21447 26.7889 1.22605 26.8005 1.23762 26.8112C1.24386 26.8165 1.25098 26.8219 1.25721 26.8281C1.26523 26.8343 1.2679 26.837 1.27413 26.8414L1.27769 26.8441C1.2857 26.8503 1.29283 26.8557 1.30084 26.8619L1.30796 26.8673L1.31063 26.8699L1.63562 27.137L1.23673 26.9928C1.22961 26.9901 1.22071 26.9866 1.21269 26.983L1.20112 26.9777L1.19489 26.975L1.19221 26.9741L1.18776 26.9723L1.18153 26.9688C1.17708 26.967 1.17352 26.9643 1.16995 26.9608L1.18509 26.9705C1.16728 26.9616 1.14948 26.9518 1.13256 26.9421L1.12633 26.9394L1.12454 26.9376L1.13167 26.9412H1.13078L1.12989 26.9403L1.12633 26.9385L1.1192 26.934C1.11386 26.9305 1.10941 26.9278 1.10496 26.9242L1.10941 26.9278L1.07379 26.902L1.06489 26.8949C1.05866 26.8913 1.05777 26.8904 1.0542 26.8869L1.0364 26.8735C1.01236 26.8539 0.989207 26.8343 0.966948 26.8138C0.943798 26.7943 0.921538 26.7729 0.899279 26.7524C0.887704 26.7417 0.877909 26.7319 0.867225 26.7212L0.834281 26.6892L0.893046 26.65C0.917086 26.6936 0.947359 26.7382 0.980303 26.7791C1.01236 26.821 1.04708 26.861 1.08537 26.8984C1.16105 26.9723 1.24297 27.04 1.33111 27.097C1.41926 27.1549 1.51364 27.2065 1.60624 27.2475C1.6285 27.259 1.65521 27.2688 1.68014 27.2795L1.71843 27.2955L1.73713 27.3036L1.74692 27.3071C1.74781 27.308 1.74336 27.3053 1.74603 27.3071L1.7487 27.308L1.75315 27.3098C1.80212 27.3285 1.85199 27.3445 1.90185 27.3605C2.00246 27.3908 2.10485 27.4175 2.20547 27.4398L2.24999 27.4487C2.24642 27.4478 2.26156 27.4514 2.24286 27.4469L2.24464 27.4478L2.25533 27.4487L2.27581 27.4505L2.35683 27.4594L2.3595 27.4603C2.36217 27.4603 2.34793 27.4576 2.35505 27.4594H2.36039L2.37108 27.4611L2.39067 27.4629C2.40491 27.4647 2.4156 27.4647 2.44142 27.4692C2.46457 27.4736 2.49217 27.4798 2.526 27.4985C2.55984 27.5155 2.60169 27.5555 2.62038 27.6027C2.63107 27.6259 2.63552 27.6472 2.63819 27.6668C2.63997 27.6864 2.63997 27.7033 2.63819 27.7229L2.63641 27.7398L2.63552 27.7443L2.63285 27.7585L2.62929 27.779L2.61415 27.8591L2.55272 28.1815L2.5447 28.2215L2.54114 28.2411L2.5358 28.2678L2.51799 28.3471L2.37998 28.9882L2.34526 29.1484L2.30697 29.3122L2.22862 29.6337C2.1743 29.8474 2.11821 30.0602 2.05766 30.2739C1.99712 30.4867 1.93034 30.6986 1.86 30.9105C1.82438 31.0155 1.7861 31.1206 1.74692 31.2257L1.68638 31.3842L1.62494 31.5373C1.54302 31.7376 1.46111 31.9371 1.39255 32.1321C1.35872 32.23 1.32488 32.3262 1.30084 32.4179C1.2768 32.5087 1.25899 32.5978 1.25899 32.6628C1.25899 32.6948 1.26255 32.7206 1.26701 32.7367C1.27235 32.7518 1.27591 32.7616 1.28303 32.7714C1.29194 32.7821 1.3044 32.7954 1.32755 32.8114C1.33824 32.8195 1.35337 32.8266 1.36762 32.8355C1.38454 32.8435 1.39789 32.8524 1.41748 32.8604C1.56528 32.9245 1.77452 32.9699 1.97397 33.0082L2.0541 33.0234L2.07458 33.0269L2.08438 33.0287L2.08705 33.0296C2.08438 33.0287 2.09595 33.0305 2.0817 33.0287L2.08705 33.0296L2.12711 33.0358L2.28916 33.0625L2.45032 33.0892L2.53135 33.1035L2.54114 33.1053L2.54381 33.1062C2.53847 33.1053 2.55984 33.1079 2.53224 33.1053H2.53669L2.55984 33.1088L2.59902 33.1133C2.80736 33.1409 3.01928 33.1596 3.23208 33.1783L3.55261 33.2014L3.71377 33.2112L3.79391 33.2157L3.83219 33.2184H3.83754C3.84644 33.2175 3.82863 33.2192 3.8313 33.2192H4.12335L4.03876 33.4677V33.4694C4.02095 33.5211 3.99958 33.5701 3.97554 33.619L3.95774 33.6546C3.95061 33.668 3.94527 33.6787 3.93815 33.6903C3.92479 33.7134 3.91055 33.7357 3.89719 33.7579C3.83932 33.847 3.77343 33.9315 3.69775 34.0099L3.71199 33.9965L3.70843 34.001L3.69953 34.0099H3.69864L3.69775 34.0117L3.69596 34.0135L3.68884 34.0215L3.68261 34.0286L3.67905 34.033L3.67816 34.0339H3.67727C3.68172 34.0304 3.66836 34.0428 3.68617 34.0259V34.0268L3.68083 34.0322L3.67905 34.0348L3.6746 34.0393L3.66035 34.0553L3.65768 34.0598L3.65679 34.0606H3.6559C3.65501 34.0624 3.67014 34.0473 3.66391 34.0535H3.66302V34.0544L3.66124 34.0562L3.65679 34.0624L3.63809 34.0776C3.62919 34.0856 3.61405 34.0954 3.62919 34.0847C3.64254 34.0749 3.65323 34.0651 3.65768 34.0606C3.66658 34.0509 3.66747 34.05 3.67014 34.0473L3.66658 34.0517L3.66391 34.0544L3.65857 34.0624L3.65679 34.066L3.65501 34.0678C3.65412 34.0687 3.66035 34.0615 3.65768 34.0642V34.0651L3.65679 34.066L3.65145 34.074L3.64076 34.0891L3.63631 34.0963L3.63542 34.0972C3.66302 34.0615 3.64254 34.0874 3.64877 34.0793V34.0802L3.64788 34.082L3.64521 34.0856L3.62651 34.1176L3.61761 34.1337L3.61227 34.1408L3.61049 34.1452L3.60871 34.147C3.60515 34.1532 3.63987 34.0972 3.62562 34.1212L3.62473 34.123L3.61049 34.1559L3.60336 34.1728L3.59802 34.1835V34.1844C3.59001 34.2004 3.60871 34.163 3.60693 34.1666L3.60604 34.1675L3.60515 34.1719L3.59535 34.1978L3.59446 34.1996C3.60871 34.1648 3.59802 34.1898 3.60158 34.1826V34.1835L3.60069 34.1844L3.5998 34.1889L3.59535 34.2067L3.59268 34.2147L3.59179 34.2165C3.59535 34.2085 3.58467 34.2378 3.59891 34.1969L3.59713 34.204L3.59001 34.2396L3.58556 34.2574L3.58378 34.2663L3.58289 34.2681C3.59802 34.2031 3.58734 34.2503 3.5909 34.2361V34.2378L3.59001 34.2423L3.58645 34.2788L3.58556 34.2966L3.58467 34.3064L3.58378 34.3082V34.3091C3.59179 34.2485 3.58645 34.2921 3.58823 34.2797V34.3215L3.58912 34.3402V34.3509C3.59001 34.277 3.58912 34.3304 3.58912 34.3144L3.59001 34.3162V34.3206L3.59446 34.3571L3.59713 34.3803V34.3839C3.60069 34.4115 3.59357 34.3456 3.59446 34.3527L3.59624 34.3616C3.61138 34.4293 3.60604 34.4008 3.62651 34.4551L3.63364 34.4729L3.6372 34.4809L3.63898 34.4854C3.61939 34.4328 3.63364 34.4711 3.62919 34.4595L3.63097 34.4631L3.64788 34.496L3.65145 34.5041L3.65412 34.5076C3.62919 34.4542 3.64699 34.4934 3.64165 34.4818L3.64254 34.4827L3.64343 34.4854L3.65234 34.5014L3.66124 34.5165L3.66569 34.5245L3.66658 34.5272H3.66747C3.6746 34.5406 3.65768 34.5103 3.65946 34.5139L3.66035 34.5147L3.66302 34.5183L3.68261 34.5486L3.68528 34.553L3.68706 34.5548C3.68083 34.5441 3.68528 34.5521 3.6835 34.5495L3.68439 34.5504L3.68795 34.5557L3.69596 34.5655C3.70576 34.5789 3.71644 34.5904 3.72713 34.6029C3.74939 34.6278 3.77165 34.651 3.79836 34.675C3.82596 34.6999 3.85267 34.7222 3.88473 34.7454C3.91589 34.7685 3.94794 34.7908 3.98089 34.8121C3.99691 34.8219 4.01472 34.8335 4.02986 34.8415L4.04499 34.8504V34.8513C4.04588 34.8513 4.03965 34.8477 4.04232 34.8495H4.04321L4.04499 34.8504L4.04856 34.8531L4.05568 34.8567L4.08239 34.8709C4.1189 34.8905 4.1554 34.9092 4.1928 34.927C4.2293 34.9448 4.26759 34.9617 4.30588 34.9769C4.34327 34.992 4.38423 35.0071 4.42073 35.0205L4.45279 35.0321C4.46169 35.0347 4.47327 35.0374 4.48306 35.0401L4.54361 35.0579L4.66381 35.0926L5.15263 35.2324L4.88462 35.6384C4.85168 35.6874 4.8223 35.7372 4.79469 35.7871L4.77511 35.8254L4.7573 35.8601C4.74572 35.8868 4.73504 35.9118 4.72524 35.9358C4.71545 35.9598 4.70744 35.983 4.69942 36.007C4.69586 36.0186 4.69319 36.0302 4.68963 36.0417L4.68518 36.0578L4.6834 36.0649L4.68073 36.0783L4.67984 36.0845L4.67895 36.0854V36.0872C4.67984 36.0827 4.67716 36.097 4.68073 36.0783L4.67984 36.0809L4.67805 36.0943L4.67449 36.1192L4.66648 36.1709H4.66559V36.1717C4.66737 36.1611 4.66203 36.1958 4.66915 36.1477V36.1522L4.66826 36.1655L4.66559 36.2216L4.6647 36.1806L4.66915 36.2474L4.67182 36.2804L4.67271 36.2884V36.2902C4.66203 36.218 4.67004 36.2706 4.66737 36.2545V36.2563L4.66826 36.2599L4.67182 36.2768L4.67716 36.3098L4.67805 36.3106V36.3115C4.67538 36.2991 4.68429 36.3382 4.67182 36.2848V36.2866L4.67271 36.2902L4.67538 36.2982L4.6834 36.3311L4.68518 36.3391V36.3409L4.68607 36.3418V36.3427C4.68785 36.3471 4.67271 36.3 4.67895 36.3204L4.68073 36.3249L4.69052 36.3543C4.69586 36.3694 4.69942 36.3774 4.70031 36.3792C4.70031 36.381 4.69942 36.3783 4.69853 36.3774C4.69764 36.3765 4.70031 36.381 4.7012 36.3828L4.70833 36.3961L4.72435 36.4255L4.72881 36.4344L4.7297 36.4353V36.4362C4.70744 36.3979 4.72346 36.4255 4.71901 36.4175L4.72079 36.421L4.73059 36.4344L4.74929 36.462L4.75107 36.4656L4.75196 36.4665V36.4674C4.72168 36.4228 4.74394 36.4549 4.73682 36.4451L4.73771 36.4469L4.74216 36.4522L4.75107 36.4638L4.76798 36.486L4.74038 36.4549L4.77689 36.4932L4.79558 36.5128L4.79826 36.5154C4.79648 36.5136 4.80449 36.5217 4.79558 36.5128L4.80983 36.527C4.79024 36.5083 4.80627 36.5234 4.80182 36.5199L4.80983 36.5261C4.80538 36.5226 4.82319 36.5377 4.80004 36.519L4.80271 36.5208L4.80805 36.5252L4.82853 36.5421L4.83921 36.5502L4.84634 36.5573C4.82942 36.5439 4.84367 36.5546 4.8401 36.5519L4.86147 36.568L4.87127 36.576C4.88106 36.584 4.86147 36.5689 4.86414 36.5715L4.87216 36.5769L4.89353 36.5929L4.8962 36.5947C4.89442 36.5938 4.90421 36.6009 4.89264 36.592L4.89798 36.5965L4.90866 36.6036L4.92024 36.6116L4.92291 36.6134C4.91579 36.6089 4.94161 36.6249 4.90866 36.6045L4.91401 36.608L5.00571 36.6615L5.02797 36.6757L5.03955 36.6819L5.04222 36.6837C5.05914 36.6935 5.02352 36.673 5.02708 36.6757L5.02976 36.6766C5.03777 36.6793 5.04133 36.6828 5.05201 36.6864C5.06982 36.6944 5.09297 36.7024 5.11968 36.7095C5.17222 36.7256 5.23721 36.7407 5.31023 36.7576C5.38235 36.7754 5.46248 36.7959 5.55241 36.8288C5.59693 36.8449 5.64501 36.8654 5.69398 36.893C5.71891 36.9054 5.74562 36.9232 5.77055 36.9393L5.77946 36.9455L5.79192 36.9553L5.81596 36.9749C5.83199 36.9882 5.84801 37.0025 5.86315 37.0158C5.8676 37.0203 5.86938 37.0221 5.87027 37.0238L5.87473 37.0283L5.89253 37.0479L5.89699 37.0532L5.89966 37.055C5.89699 37.0514 5.93171 37.0915 5.91835 37.0773C5.93794 37.1031 5.95842 37.1307 5.97356 37.1574C6.00561 37.2108 6.02787 37.2625 6.04568 37.3132C6.0804 37.4129 6.09643 37.5046 6.10712 37.5892C6.1178 37.672 6.12225 37.7522 6.12581 37.8207L6.13294 37.9329C6.13472 37.9748 6.13472 38.0148 6.13472 38.0558C6.13294 38.1377 6.12849 38.2169 6.11958 38.2971L6.11691 38.3256L6.11335 38.3567L6.10623 38.4093L6.10266 38.436L6.09821 38.4716L6.0902 38.5241L6.07951 38.5856L6.06972 38.6372L6.06082 38.688L6.05458 38.7182C6.05191 38.7378 6.05814 38.696 6.05725 38.7013L6.05636 38.704L6.05458 38.7191L6.0528 38.7316L6.04835 38.7592L6.04657 38.7717C6.04479 38.7806 6.04746 38.7636 6.04657 38.7663V38.7699C6.04657 38.7654 6.04479 38.785 6.04746 38.7601L6.04657 38.7636L6.0439 38.7966L6.04301 38.8001C6.04479 38.777 6.0439 38.7948 6.0439 38.7912V38.7975L6.04212 38.8108L6.03856 38.8634L6.03767 38.8767C6.03856 38.8349 6.03767 38.8669 6.03767 38.8589V38.9319C6.03678 38.9114 6.03767 38.9284 6.03767 38.9239L6.03856 38.9373L6.04034 38.9907V38.9934C6.04123 39.0058 6.03945 38.9809 6.04034 38.9853V38.9916L6.04301 39.0316L6.04568 39.0575C6.04212 39.0272 6.04479 39.0503 6.0439 39.045V39.0477L6.04479 39.0539L6.04657 39.0655C6.05458 39.1269 6.06527 39.1857 6.07862 39.24C6.10801 39.3549 6.14896 39.4662 6.20328 39.5712C6.21663 39.597 6.23177 39.6229 6.24691 39.6478L6.26827 39.6834C6.27451 39.6932 6.28964 39.7155 6.2941 39.7226C6.32704 39.7698 6.36266 39.8161 6.40094 39.8597C6.44012 39.9033 6.48197 39.9452 6.52559 39.9835C6.54696 40.0022 6.57189 40.0226 6.59148 40.0369C6.61819 40.0574 6.64045 40.0734 6.66538 40.0903C6.76333 40.1562 6.87106 40.2105 6.98325 40.2515L7.02243 40.2657L7.04825 40.2737L7.05448 40.2755C7.03489 40.2702 7.05092 40.2746 7.04736 40.2737L7.05092 40.2746L7.06338 40.2782L7.16578 40.3058L7.17913 40.3085C7.12749 40.2978 7.16667 40.3058 7.15598 40.304L7.15866 40.3049L7.16578 40.3058L7.21742 40.3174C7.21742 40.3174 7.22187 40.3191 7.21831 40.3182L7.22098 40.3191L7.22811 40.32L7.24146 40.3218L7.34385 40.3396L7.35009 40.3405C7.31536 40.3369 7.34296 40.3396 7.33584 40.3387L7.3394 40.3396L7.35187 40.3414L7.37858 40.3441L7.39995 40.3467L7.42666 40.3494L7.53796 40.3574C7.55309 40.3592 7.57802 40.3601 7.61631 40.3592L7.7187 40.3583H7.765C7.76946 40.3574 7.74185 40.3601 7.75521 40.3592L7.75788 40.3583L7.8113 40.3548L7.91637 40.3467L7.96089 40.3432L7.97603 40.3414H7.97781L7.98404 40.3405L7.99918 40.3378L8.00274 40.3369L8.00897 40.3361C8.04102 40.3325 8.07397 40.328 8.10691 40.3227C8.23691 40.3013 8.36779 40.2737 8.4969 40.2399C8.62689 40.2052 8.756 40.1651 8.8851 40.1206C9.00976 40.0761 9.14064 40.0235 9.26619 39.9701C9.39262 39.9176 9.51816 39.8606 9.64282 39.8C9.70425 39.7707 9.76658 39.7413 9.8298 39.7066L10.0132 39.6104L10.1058 39.5614L10.1486 39.5374L10.194 39.5116L10.3774 39.4056L10.7415 39.191L11.1093 38.972C11.2313 38.9008 11.3586 38.8322 11.4797 38.7636L11.6684 38.6577L11.8545 38.5562L12.2303 38.3567C12.3594 38.29 12.4849 38.2267 12.6131 38.1644C12.7413 38.1021 12.8704 38.0407 13.0004 37.9819L13.1963 37.8946L13.394 37.8127L13.4928 37.7726L13.5169 37.7629L13.5311 37.7566L13.5934 37.7344L13.7956 37.6605L13.8579 37.6382L13.873 37.6329L13.8988 37.6257L14.0003 37.5946L14.1027 37.5634C14.1419 37.5518 14.174 37.5456 14.2078 37.5367L14.3111 37.5118L14.4188 37.4922C14.4874 37.4779 14.5657 37.4735 14.6343 37.4672L14.6379 37.4664H14.6387L14.6672 37.4672L14.669 37.5438Z" fill="white"/>
</g>
<path d="M23.081 7.53131H25.9017L32.633 21.6563L37.8898 7.53131H40.9741V7.70583C40.4701 7.70583 40.1051 7.85808 39.8771 8.1617C39.6492 8.46621 39.505 8.95948 39.4462 9.64329C39.3892 10.3271 39.3607 11.2478 39.3607 12.4035V20.1854C39.3607 21.3304 39.3892 22.2475 39.4462 22.9385C39.505 23.6276 39.6492 24.1236 39.8771 24.4272C40.1051 24.7317 40.4701 24.8831 40.9741 24.8831V25.0576H36.2408V24.8831C36.7439 24.8831 37.1098 24.7317 37.3378 24.4272C37.5657 24.1236 37.7082 23.6276 37.7651 22.9385C37.8239 22.2475 37.8542 21.3304 37.8542 20.1854V8.10828C37.222 9.79199 36.597 11.4695 35.9773 13.1407C35.3593 14.8102 34.729 16.5188 34.0861 18.2657C33.4424 20.0136 32.7585 21.8513 32.0347 23.779H31.878C31.3295 22.5992 30.8175 21.5032 30.3429 20.4917C29.8701 19.4802 29.4205 18.5142 28.9931 17.5926C28.5675 16.6693 28.1392 15.7495 27.7074 14.8324C27.2747 13.9136 26.8313 12.9617 26.3754 11.9761C25.9195 10.9887 25.4218 9.92109 24.8831 8.77428L24.8689 16.2927V18.5186C24.8689 19.7936 24.949 20.847 25.1111 21.6777C25.2749 22.5066 25.4966 23.1548 25.7771 23.6223C26.0593 24.0879 26.3754 24.4147 26.7244 24.6017C27.0752 24.7896 27.4376 24.8831 27.8107 24.8831V25.0576H23.081V24.8831C23.5814 24.8831 23.9464 24.7317 24.1744 24.4272C24.4023 24.1236 24.5448 23.6276 24.6018 22.9385C24.6605 22.2475 24.6908 21.3304 24.6908 20.1854V12.4035C24.6908 11.2478 24.6605 10.3271 24.6018 9.64329C24.5448 8.95948 24.4023 8.46621 24.1744 8.1617C23.9464 7.85808 23.5814 7.70583 23.081 7.70583V7.53131Z" fill="white"/>
<path d="M48.5607 25.4066C47.6151 25.4066 46.771 25.2374 46.0284 24.9009C45.2876 24.5616 44.659 24.0915 44.1444 23.4905C43.6315 22.8877 43.2371 22.1897 42.962 21.3963C42.6859 20.6012 42.5488 19.7536 42.5488 18.8534C42.5488 17.9541 42.6859 17.1074 42.962 16.314C43.2371 15.5189 43.6315 14.8209 44.1444 14.2199C44.659 13.6171 45.2876 13.147 46.0284 12.8095C46.771 12.4703 47.6151 12.3002 48.5607 12.3002C49.508 12.3002 50.3201 12.4231 50.9968 12.667C51.6752 12.9119 52.2308 13.2333 52.6636 13.6322C53.0954 14.0293 53.4133 14.4612 53.618 14.9286C53.8219 15.3943 53.9243 15.8493 53.9243 16.2927C53.9119 17.2881 53.6305 18.0654 53.0803 18.6255C52.5318 19.1864 51.7554 19.466 50.751 19.466C50.0503 19.466 49.452 19.3876 48.956 19.2309C48.4592 19.0724 48.0211 18.8908 47.6418 18.686C47.2616 18.4821 46.8939 18.3014 46.5377 18.1447C46.1816 17.9862 45.7871 17.906 45.3553 17.906C45.1434 17.906 44.9529 17.9621 44.7819 18.0734C44.6127 18.1856 44.5166 18.2756 44.4934 18.3441L44.4258 18.3263C44.4258 17.9657 44.5798 17.6425 44.8887 17.3576C45.1995 17.0709 45.6589 16.9266 46.2671 16.9266C46.7203 16.9266 47.1512 17.0433 47.5599 17.2757C47.9704 17.5089 48.3621 17.7805 48.7352 18.0912C49.11 18.4002 49.4724 18.6718 49.8215 18.9068C50.1723 19.1401 50.524 19.2559 50.8757 19.2559C51.3075 19.2559 51.6637 19.0938 51.9441 18.7679C52.2237 18.4403 52.4196 18.0227 52.5318 17.5143C52.6431 17.0041 52.6511 16.4601 52.5567 15.8831C52.4641 15.3044 52.2593 14.7603 51.9441 14.2519C51.628 13.7444 51.19 13.3277 50.6299 13.0018C50.069 12.6742 49.3674 12.5103 48.5251 12.5103C47.8128 12.5103 47.1984 12.6483 46.6838 12.9235C46.1709 13.1968 45.7444 13.561 45.4052 14.0169C45.0677 14.4727 44.7961 14.9749 44.5896 15.5234C44.3848 16.0719 44.2423 16.6337 44.1622 17.208C44.0812 17.7805 44.0456 18.3112 44.0554 18.8C44.0669 19.6191 44.1889 20.3911 44.4222 21.115C44.6572 21.8397 44.9929 22.479 45.4301 23.0346C45.8691 23.5885 46.4042 24.023 47.0363 24.3382C47.6676 24.6542 48.3862 24.8118 49.1911 24.8118C49.5419 24.8118 49.9336 24.7602 50.3664 24.6551C50.7982 24.551 51.2327 24.3827 51.6699 24.1494C52.1088 23.9143 52.5122 23.6045 52.8808 23.2198C53.2485 22.8334 53.5379 22.3597 53.7498 21.7988L53.9956 21.9021C53.5397 22.942 52.8461 23.7861 51.9156 24.4343C50.987 25.0825 49.8686 25.4066 48.5607 25.4066ZM47.0007 11.246V11.0715H47.5635C47.9356 11.0715 48.2303 10.9958 48.4467 10.8435C48.6622 10.6922 48.8403 10.5194 48.9809 10.3271C49.1207 10.1348 49.2552 9.96296 49.3834 9.8107C49.5134 9.65934 49.6834 9.58276 49.8927 9.58276C50.0565 9.58276 50.1785 9.62906 50.2595 9.72166C50.3423 9.81426 50.3842 9.92645 50.3842 10.0564C50.3842 10.2897 50.272 10.4972 50.0494 10.6797C49.8286 10.8605 49.5597 11.0002 49.2445 11.1C48.9284 11.1979 48.6248 11.246 48.3327 11.246H47.0007Z" fill="white"/>
<path d="M55.3939 12.6492C55.978 12.6492 56.4561 12.5451 56.8292 12.3358C57.204 12.1248 57.4934 11.8497 57.6982 11.5096C57.9047 11.1703 58.0543 10.8062 58.1469 10.4162C58.2395 10.0244 58.2938 9.65044 58.3108 9.29429C58.3295 8.93636 58.3393 8.64075 58.3393 8.40747H58.5138V12.6492H59.8458V12.8238H58.5138V21.2361C58.5138 22.1478 58.5138 22.8735 58.5138 23.4122C58.5138 23.9491 58.5512 24.3346 58.6277 24.5697C58.7034 24.8029 58.853 24.9187 59.0765 24.9187C59.2635 24.9187 59.4335 24.851 59.5858 24.7157C59.7372 24.5803 59.86 24.4432 59.9526 24.3025C60.0452 24.1628 60.0915 24.0924 60.0915 24.0924L60.266 24.1815C60.0452 24.5545 59.779 24.851 59.4683 25.0718C59.1593 25.2944 58.7827 25.4066 58.3393 25.4066C57.838 25.4066 57.4898 25.2223 57.2957 24.8546C57.1034 24.4869 57.0072 24.0167 57.0072 23.4442V12.8238H55.3939V12.6492Z" fill="white"/>
<path d="M67.6802 25.4066C66.7346 25.4066 65.8906 25.2375 65.148 24.9009C64.4072 24.5617 63.7786 24.0915 63.2639 23.4905C62.7511 22.8878 62.3566 22.1897 62.0815 21.3964C61.8055 20.6013 61.6684 19.7536 61.6684 18.8534C61.6684 17.9542 61.8055 17.1074 62.0815 16.3141C62.3566 15.519 62.7511 14.8209 63.2639 14.2199C63.7786 13.6171 64.4072 13.147 65.148 12.8095C65.8906 12.4703 66.7346 12.3002 67.6802 12.3002C68.6276 12.3002 69.4717 12.4703 70.2125 12.8095C70.955 13.147 71.589 13.6171 72.1143 14.2199C72.6414 14.8209 73.0412 15.519 73.3146 16.3141C73.5897 17.1074 73.7277 17.9542 73.7277 18.8534C73.7277 19.7536 73.5897 20.6013 73.3146 21.3964C73.0412 22.1897 72.6414 22.8878 72.1143 23.4905C71.589 24.0915 70.955 24.5617 70.2125 24.9009C69.4717 25.2375 68.6276 25.4066 67.6802 25.4066ZM63.1606 18.8534C63.1606 20.1383 63.3467 21.2566 63.7198 22.2084C64.092 23.1611 64.6209 23.8966 65.3047 24.4165C65.9885 24.9365 66.78 25.1965 67.6802 25.1965C68.592 25.1965 69.3898 24.9365 70.0736 24.4165C70.7574 23.8966 71.2889 23.1611 71.6691 22.2084C72.0484 21.2566 72.239 20.1383 72.239 18.8534C72.239 17.5695 72.0484 16.4512 71.6691 15.4985C71.2889 14.5467 70.7574 13.8103 70.0736 13.2903C69.3898 12.7704 68.592 12.5104 67.6802 12.5104C66.78 12.5104 65.9885 12.7704 65.3047 13.2903C64.6209 13.8103 64.092 14.5467 63.7198 15.4985C63.3467 16.4512 63.1606 17.5695 63.1606 18.8534Z" fill="white"/>
<path d="M81.8402 25.4066C80.8947 25.4066 80.0506 25.2374 79.308 24.9009C78.5672 24.5616 77.9386 24.0915 77.424 23.4905C76.9111 22.8877 76.5167 22.1896 76.2415 21.3963C75.9655 20.6012 75.8284 19.7536 75.8284 18.8534C75.8284 17.9541 75.9655 17.1074 76.2415 16.314C76.5167 15.5189 76.9111 14.8209 77.424 14.2199C77.9386 13.6171 78.5672 13.1469 79.308 12.8095C80.0506 12.4703 80.8947 12.3002 81.8402 12.3002C82.7636 12.3002 83.5373 12.3883 84.1624 12.5637C84.7865 12.7374 85.3742 13 85.9253 13.3508V12.4035C85.9253 11.2478 85.895 10.3271 85.8363 9.64329C85.7793 8.95948 85.6368 8.46621 85.4089 8.1617C85.181 7.85808 84.815 7.70583 84.3119 7.70583V7.53131H87.4318V20.1854C87.4318 21.3304 87.4603 22.2475 87.5173 22.9385C87.5761 23.6276 87.7203 24.1236 87.9483 24.4272C88.1762 24.7317 88.5412 24.8831 89.0452 24.8831V25.0576H85.9253V23.6721C85.505 24.1761 84.9316 24.591 84.2051 24.9187C83.4803 25.2437 82.6923 25.4066 81.8402 25.4066ZM81.8402 12.5103C80.9401 12.5103 80.1485 12.7703 79.4647 13.2903C78.7809 13.8103 78.252 14.5466 77.8798 15.4984C77.5068 16.4511 77.3207 17.5695 77.3207 18.8534C77.3207 20.1382 77.5068 21.2565 77.8798 22.2083C78.252 23.1611 78.7809 23.8965 79.4647 24.4165C80.1485 24.9365 80.9401 25.1965 81.8402 25.1965C82.3193 25.1965 82.7983 25.1154 83.2755 24.9543C83.7546 24.7905 84.1926 24.5607 84.5897 24.2633C84.9886 23.9642 85.3101 23.6169 85.5549 23.2198C85.8015 22.8209 85.9253 22.3882 85.9253 21.9199V14.7363C85.749 14.4656 85.489 14.1557 85.1453 13.8067C84.8008 13.4559 84.3591 13.1514 83.8204 12.895C83.2835 12.6385 82.6238 12.5103 81.8402 12.5103Z" fill="white"/>
<path d="M96.4559 25.4066C95.5103 25.4066 94.6662 25.2375 93.9237 24.9009C93.1829 24.5617 92.5543 24.0915 92.0396 23.4905C91.5268 22.8878 91.1323 22.1897 90.8572 21.3964C90.5812 20.6013 90.4441 19.7536 90.4441 18.8534C90.4441 17.9542 90.5812 17.1074 90.8572 16.3141C91.1323 15.519 91.5268 14.8209 92.0396 14.2199C92.5543 13.6171 93.1829 13.147 93.9237 12.8095C94.6662 12.4703 95.5103 12.3002 96.4559 12.3002C97.4033 12.3002 98.2474 12.4703 98.9882 12.8095C99.7307 13.147 100.365 13.6171 100.89 14.2199C101.417 14.8209 101.817 15.519 102.09 16.3141C102.365 17.1074 102.503 17.9542 102.503 18.8534C102.503 19.7536 102.365 20.6013 102.09 21.3964C101.817 22.1897 101.417 22.8878 100.89 23.4905C100.365 24.0915 99.7307 24.5617 98.9882 24.9009C98.2474 25.2375 97.4033 25.4066 96.4559 25.4066ZM91.9363 18.8534C91.9363 20.1383 92.1224 21.2566 92.4955 22.2084C92.8677 23.1611 93.3966 23.8966 94.0804 24.4165C94.7642 24.9365 95.5557 25.1965 96.4559 25.1965C97.3677 25.1965 98.1654 24.9365 98.8493 24.4165C99.5331 23.8966 100.065 23.1611 100.445 22.2084C100.824 21.2566 101.015 20.1383 101.015 18.8534C101.015 17.5695 100.824 16.4512 100.445 15.4985C100.065 14.5467 99.5331 13.8103 98.8493 13.2903C98.1654 12.7704 97.3677 12.5104 96.4559 12.5104C95.5557 12.5104 94.7642 12.7704 94.0804 13.2903C93.3966 13.8103 92.8677 14.5467 92.4955 15.4985C92.1224 16.4512 91.9363 17.5695 91.9363 18.8534Z" fill="white"/>
<path d="M28.1797 38.7186C27.389 38.7186 26.6999 38.585 26.114 38.3197C25.5272 38.0543 25.0705 37.6741 24.7428 37.18C24.4169 36.6867 24.2406 36.1097 24.2121 35.4491H25.0989C25.1488 36.2095 25.4498 36.8016 26.0036 37.2263C26.5565 37.6492 27.2822 37.8602 28.1797 37.8602C29.0273 37.8602 29.6978 37.6857 30.1919 37.3367C30.6852 36.9859 30.9327 36.5086 30.9327 35.905C30.9327 35.3636 30.7048 34.9238 30.2489 34.5836C29.7948 34.2417 29.046 33.9568 28.0016 33.7289C26.7283 33.435 25.8059 33.0557 25.2343 32.5927C24.6618 32.128 24.376 31.5056 24.376 30.7265C24.376 29.8985 24.6912 29.2324 25.3233 28.7285C25.9546 28.2254 26.8227 27.9734 27.9268 27.9734C29.0709 27.9734 29.9711 28.2504 30.6264 28.8033C31.2835 29.3544 31.6326 30.1282 31.6735 31.1254H30.7831C30.7449 30.3944 30.4768 29.829 29.9782 29.4301C29.4796 29.0312 28.7958 28.8318 27.9268 28.8318C27.0881 28.8318 26.4363 29.0054 25.9715 29.3518C25.5085 29.6963 25.277 30.1549 25.277 30.7265C25.277 31.2394 25.4961 31.6667 25.9359 32.0087C26.3749 32.3488 27.137 32.6417 28.2224 32.8884C29.5348 33.1929 30.4671 33.5846 31.0182 34.0637C31.5711 34.5436 31.848 35.1526 31.848 35.8907C31.848 36.7597 31.5177 37.4489 30.8579 37.9564C30.1973 38.4648 29.3051 38.7186 28.1797 38.7186Z" fill="white"/>
<path d="M34.5737 38.5262V28.1658H37.8574C39.0612 28.1658 39.9988 28.4649 40.671 29.0633C41.3424 29.6598 41.679 30.495 41.679 31.5706C41.679 32.6462 41.3424 33.4831 40.671 34.0815C39.9988 34.678 39.0612 34.9754 37.8574 34.9754H35.4748V38.5262H34.5737ZM35.4748 34.1456H37.8432C39.7967 34.1456 40.7743 33.2926 40.7743 31.5848C40.7743 29.878 39.7967 29.0241 37.8432 29.0241H35.4748V34.1456Z" fill="white"/>
<path d="M42.6964 38.5262L46.9916 28.1658H47.8499L52.1415 38.5262H51.1942L50.115 35.9228H44.7264L43.6615 38.5262H42.6964ZM45.0826 35.0929H49.7731L47.4189 29.3945L45.0826 35.0929Z" fill="white"/>
<path d="M65.0916 38.5262V33.6719H59.0227V38.5262H58.1217V28.1658H59.0227V32.8136H65.0916V28.1658H65.9962V38.5262H65.0916Z" fill="white"/>
<path d="M73.9564 38.7186C72.9111 38.7186 71.9869 38.4924 71.1819 38.0383C70.377 37.5851 69.7475 36.9538 69.2943 36.1436C68.8402 35.3342 68.6141 34.4011 68.6141 33.3442C68.6141 32.29 68.8402 31.3587 69.2943 30.5484C69.7475 29.7391 70.377 29.1078 71.1819 28.6537C71.9869 28.2005 72.9111 27.9734 73.9564 27.9734C75.0124 27.9734 75.9419 28.2005 76.745 28.6537C77.55 29.1078 78.1768 29.7391 78.6255 30.5484C79.0761 31.3587 79.3022 32.29 79.3022 33.3442C79.3022 34.4011 79.0761 35.3342 78.6255 36.1436C78.1768 36.9538 77.55 37.5851 76.745 38.0383C75.9419 38.4924 75.0124 38.7186 73.9564 38.7186ZM69.533 33.3442C69.533 34.223 69.7199 35.0003 70.0957 35.677C70.4705 36.3537 70.9905 36.8799 71.6556 37.2548C72.3225 37.6305 73.0891 37.8175 73.9564 37.8175C74.8343 37.8175 75.6063 37.6305 76.2714 37.2548C76.9383 36.8799 77.4591 36.3537 77.8349 35.677C78.2097 35.0003 78.3976 34.223 78.3976 33.3442C78.3976 32.4565 78.2097 31.6774 77.8349 31.0079C77.4591 30.3365 76.9383 29.813 76.2714 29.4372C75.6063 29.0624 74.8343 28.8745 73.9564 28.8745C73.0891 28.8745 72.3225 29.0624 71.6556 29.4372C70.9905 29.813 70.4705 30.3365 70.0957 31.0079C69.7199 31.6774 69.533 32.4565 69.533 33.3442Z" fill="white"/>
<path d="M81.9213 38.5262V28.1658H82.7654L87.0712 34.6477L91.3771 28.1658H92.207V38.5262H91.3201V29.8219L87.4416 35.6414H86.7008L82.8223 29.8219V38.5262H81.9213Z" fill="white"/>
<path d="M95.5528 38.5262V28.1658H101.65V29.0099H96.4538V32.8278H101.265V33.6576H96.4538V37.6822H101.814V38.5262H95.5528Z" fill="white"/>
</svg>
