<svg width="36" height="35" viewBox="0 0 36 35" fill="none" xmlns="http://www.w3.org/2000/svg">
<g clip-path="url(#clip0_27_280)">
<path d="M33.7173 27.7083C33.7173 28.4819 33.4113 29.2237 32.8668 29.7707C32.3222 30.3177 31.5836 30.625 30.8134 30.625H4.67881C3.90866 30.625 3.17006 30.3177 2.62548 29.7707C2.0809 29.2237 1.77496 28.4819 1.77496 27.7083V11.6667C1.77496 10.8931 2.0809 10.1513 2.62548 9.60427C3.17006 9.05729 3.90866 8.75 4.67881 8.75H10.4865L13.3903 4.375H22.1019L25.0057 8.75H30.8134C31.5836 8.75 32.3222 9.05729 32.8668 9.60427C33.4113 10.1513 33.7173 10.8931 33.7173 11.6667V27.7083Z" stroke="#E35909" stroke-width="2" stroke-linecap="round" stroke-linejoin="round"/>
<path d="M17.7461 24.7917C20.9536 24.7917 23.5538 22.18 23.5538 18.9583C23.5538 15.7367 20.9536 13.125 17.7461 13.125C14.5386 13.125 11.9384 15.7367 11.9384 18.9583C11.9384 22.18 14.5386 24.7917 17.7461 24.7917Z" stroke="#E35909" stroke-width="2" stroke-linecap="round" stroke-linejoin="round"/>
</g>
<defs>
<clipPath id="clip0_27_280">
<rect width="34.8462" height="35" fill="white" transform="translate(0.323059)"/>
</clipPath>
</defs>
</svg>
