<svg width="36" height="35" viewBox="0 0 36 35" fill="none" xmlns="http://www.w3.org/2000/svg">
<g clip-path="url(#clip0_27_268)">
<path d="M23.4528 23.3333L17.6451 17.5L11.8374 23.3333" stroke="#E35909" stroke-width="2" stroke-linecap="round" stroke-linejoin="round"/>
<path d="M17.6451 17.5V30.625" stroke="#E35909" stroke-width="2" stroke-linecap="round" stroke-linejoin="round"/>
<path d="M29.8267 26.8187C31.2428 26.0433 32.3615 24.8163 33.0062 23.3313C33.6509 21.8464 33.7849 20.188 33.3871 18.6181C32.9893 17.0481 32.0822 15.656 30.8092 14.6613C29.5361 13.6666 27.9695 13.1261 26.3566 13.125H24.5272C24.0877 11.4176 23.2686 9.83257 22.1314 8.48895C20.9943 7.14533 19.5686 6.07812 17.9617 5.36755C16.3548 4.65699 14.6084 4.32157 12.8539 4.3865C11.0993 4.45143 9.38227 4.91502 7.83177 5.74243C6.28128 6.56984 4.9377 7.73953 3.90206 9.16356C2.86642 10.5876 2.16566 12.2289 1.85247 13.9641C1.53927 15.6993 1.62179 17.4833 2.09382 19.1818C2.56586 20.8804 3.41512 22.4494 4.57776 23.7708" stroke="#E35909" stroke-width="2" stroke-linecap="round" stroke-linejoin="round"/>
<path d="M23.4528 23.3333L17.6451 17.5L11.8374 23.3333" stroke="#E35909" stroke-width="2" stroke-linecap="round" stroke-linejoin="round"/>
</g>
<defs>
<clipPath id="clip0_27_268">
<rect width="34.8462" height="35" fill="white" transform="translate(0.221985)"/>
</clipPath>
</defs>
</svg>
